# xmcd
#
# Track frame offsets: 
#        150
#        21798
#        43976
#        66014
#        92538
#        119357
#        144150
#        162054
#        180897
#        208078
#        232293
#        255089
#        274270
#        294823
#        317706
#
# Disc length: 4560 seconds
#
# Revision: 0
# Processed by: cddbd v1.5.2PL0 Copyright (c) Steve Scherf et al.
# Submitted via: ExactAudioCopy v1.0b3
#
DISCID=c911ce0f
DTITLE=群星 - DTS ES 正品 HIFI极品女声
DYEAR=2014
DGENRE=DTS ES
TTITLE0=写给海洋
TTITLE1=如果没有你
TTITLE2=关不上的窗
TTITLE3=离别的车站
TTITLE4=爱太深
TTITLE5=光明
TTITLE6=滴答
TTITLE7=花心
TTITLE8=老情人
TTITLE9=春天里
TTITLE10=最后一次
TTITLE11=无情的雨无情的你
TTITLE12=走天涯
TTITLE13=吻和泪
TTITLE14=美人鱼之歌
EXTD=
EXTT0=
EXTT1=
EXTT2=
EXTT3=
EXTT4=
EXTT5=
EXTT6=
EXTT7=
EXTT8=
EXTT9=
EXTT10=
EXTT11=
EXTT12=
EXTT13=
EXTT14=
PLAYORDER=
